<svg width="17px" height="17px" viewBox="0 0 17 17" fill="none" version="1.1" xmlns="http://www.w3.org/2000/svg"><path d="M11.3806452,16 L2.65806452,16 C2.21935484,16 1.85806452,15.6387097 1.85806452,15.2 L1.85806452,6.68387097 C0.15483871,5.67741935 -0.412903226,3.48387097 0.593548387,1.78064516 C1.23870968,0.696774194 2.42580645,1.04083409e-17 3.69032258,0.0258064516 C5.29032258,0.0258064516 6.01290323,0.774193548 6.91612903,1.93548387 C6.94193548,1.96129032 6.99354839,1.98709677 7.04516129,1.98709677 L7.04516129,1.98709677 C7.09677419,1.98709677 7.1483871,1.96129032 7.17419355,1.93548387 C8,0.903225806 8.69677419,0.0258064516 10.3741935,0.0258064516 C12.3354839,1.04083409e-17 13.9354839,1.6 13.9354839,3.58709677 C13.9354839,4.8516129 13.2645161,6.03870968 12.1806452,6.68387097 L12.1806452,15.2258065 C12.1548387,15.6387097 11.8193548,16 11.3806452,16 Z" id="Shape" fill="#CFCFCF"/></svg>